<svg width="167" height="26" viewBox="0 0 167 26" fill="none" xmlns="http://www.w3.org/2000/svg">
<g id="Group 1171276013">
<path id="logotype" d="M52.9245 9.87066C53.8484 10.3986 54.5523 11.1465 55.0802 12.1143C55.6082 13.1262 55.8721 14.27 55.8721 15.5899C55.8721 16.8657 55.6082 18.0095 55.0802 18.9774C54.5523 19.9892 53.8484 20.7371 52.9245 21.2651C51.9567 21.793 50.9448 22.1009 49.801 22.1009C48.7451 22.1009 47.8652 21.925 47.1613 21.573C46.4135 21.1771 45.8415 20.6931 45.4456 20.0332L45.1816 21.969H43.4219V4.50342H45.4896V11.2785C46.5454 9.82667 47.9972 9.07877 49.845 9.07877C50.9448 9.07877 52.0007 9.34273 52.9245 9.87066ZM52.6166 18.9774C53.4085 18.0975 53.8044 16.9977 53.8044 15.5899C53.8044 14.226 53.4085 13.0822 52.6166 12.2023C51.8247 11.3225 50.8128 10.8825 49.581 10.8825C48.7451 10.8825 48.0412 11.1025 47.3813 11.4984C46.7214 11.8944 46.2375 12.4663 45.9295 13.1262C45.5776 13.8301 45.4016 14.622 45.4016 15.5019C45.4016 16.4257 45.5776 17.2616 45.9295 17.9655C46.2815 18.6694 46.7654 19.2413 47.3813 19.6373C48.0412 20.0332 48.7451 20.2532 49.581 20.2532C50.8128 20.2972 51.8247 19.8573 52.6166 18.9774ZM60.0515 21.309C59.0837 20.7811 58.3358 19.9892 57.8518 19.0214C57.3239 18.0535 57.06 16.9097 57.06 15.6338C57.06 14.358 57.3239 13.2582 57.8518 12.2463C58.3798 11.2785 59.1277 10.4866 60.0515 9.95865C60.9754 9.43072 62.1192 9.12277 63.3511 9.12277C64.5829 9.12277 65.6827 9.38673 66.6066 9.95865C67.5745 10.4866 68.3224 11.2785 68.8503 12.2463C69.3782 13.2582 69.6422 14.358 69.6422 15.6338C69.6422 16.9097 69.3782 18.0535 68.8503 19.0214C68.3224 20.0332 67.5745 20.7811 66.6066 21.309C65.6387 21.837 64.5389 22.1449 63.3511 22.1449C62.0752 22.1009 61.0194 21.837 60.0515 21.309ZM65.5508 19.6813C66.2107 19.2853 66.6946 18.7134 67.0465 18.0095C67.3985 17.3056 67.5745 16.4697 67.5745 15.5899C67.5745 14.71 67.3985 13.8741 67.0465 13.1702C66.6946 12.4663 66.2107 11.8944 65.5508 11.4984C64.8908 11.1025 64.1869 10.8825 63.3511 10.8825C62.5152 10.8825 61.7673 11.1025 61.1514 11.4984C60.4915 11.8944 60.0075 12.4663 59.6996 13.1702C59.3476 13.8741 59.1716 14.71 59.1716 15.5899C59.1716 16.4697 59.3476 17.3056 59.6996 18.0095C60.0515 18.7134 60.5355 19.2853 61.1514 19.6813C61.8113 20.0772 62.5152 20.2972 63.3511 20.2972C64.1869 20.2972 64.8908 20.0772 65.5508 19.6813ZM81.2125 10.4866C82.1804 11.4544 82.6203 12.8622 82.6203 14.886V21.969H80.5526V15.0179C80.5526 13.6981 80.2447 12.7303 79.6728 12.0264C79.0569 11.3225 78.221 10.9705 77.1211 10.9705C75.9333 10.9705 74.9654 11.4104 74.3055 12.2023C73.6016 13.0382 73.2937 14.1821 73.2937 15.5899V21.969H71.226V9.25475H72.9857L73.2497 10.9705C74.2175 9.73868 75.5813 9.07877 77.4291 9.07877C79.0568 9.07877 80.2447 9.5627 81.2125 10.4866ZM84.776 12.2023C85.26 11.2345 86.0079 10.4866 86.9317 9.91465C87.8116 9.38673 88.8675 9.07877 90.0553 9.07877C91.1991 9.07877 92.255 9.34274 93.1349 9.78267C94.0147 10.2666 94.7186 10.9705 95.2466 11.8944C95.7305 12.8182 96.0385 13.8741 96.0825 15.1059C96.0825 15.3259 96.0385 15.5899 96.0385 15.9858H86.1399V16.1618C86.1838 17.3936 86.5358 18.4055 87.2837 19.1534C87.9876 19.9012 88.9555 20.2972 90.1433 20.2972C91.0232 20.2972 91.8151 20.0772 92.475 19.6373C93.1349 19.1973 93.5308 18.5374 93.7508 17.7016H95.8185C95.5545 19.0214 94.9386 20.0772 93.9268 20.9131C92.9149 21.749 91.7271 22.1449 90.2753 22.1449C88.9995 22.1449 87.8996 21.881 86.9757 21.353C86.0079 20.8251 85.26 20.0332 84.776 19.0654C84.2481 18.0535 83.9842 16.9537 83.9842 15.6338C84.0282 14.314 84.2921 13.1702 84.776 12.2023ZM94.0147 14.314C93.9268 13.2582 93.4868 12.3783 92.7829 11.8064C92.079 11.1905 91.1991 10.9265 90.0993 10.9265C89.1314 10.9265 88.2955 11.2345 87.5477 11.8944C86.7998 12.5543 86.4038 13.3462 86.3158 14.358L94.0147 14.314ZM99.25 17.7895C99.294 18.5814 99.602 19.1973 100.262 19.6813C100.922 20.1652 101.714 20.3852 102.77 20.3852C103.649 20.3852 104.397 20.2092 104.925 19.8573C105.453 19.5053 105.761 19.0214 105.761 18.4495C105.761 17.9655 105.629 17.5696 105.365 17.3056C105.101 17.0417 104.749 16.8657 104.309 16.7777C103.869 16.6897 103.297 16.5577 102.506 16.4697C101.406 16.3377 100.526 16.1618 99.8219 15.9418C99.118 15.7218 98.5461 15.4139 98.1062 14.9299C97.6662 14.446 97.4463 13.7861 97.4463 12.9502C97.4463 12.2023 97.6662 11.5424 98.0622 10.9705C98.5021 10.3986 99.074 9.95865 99.8219 9.6067C100.526 9.29874 101.362 9.12277 102.286 9.12277C103.781 9.12277 104.969 9.47472 105.937 10.1786C106.905 10.8825 107.389 11.8944 107.521 13.1702H105.453C105.365 12.5103 105.013 11.9824 104.485 11.5424C103.913 11.1025 103.209 10.8825 102.374 10.8825C101.494 10.8825 100.79 11.1025 100.262 11.4104C99.7339 11.7624 99.47 12.2463 99.47 12.8182C99.47 13.2582 99.602 13.6101 99.8659 13.8301C100.13 14.0941 100.394 14.226 100.834 14.314C101.23 14.402 101.846 14.49 102.638 14.578C103.737 14.71 104.661 14.886 105.365 15.1059C106.069 15.3699 106.641 15.7218 107.125 16.2498C107.565 16.7777 107.785 17.4816 107.785 18.3615C107.785 19.1534 107.565 19.8133 107.125 20.3852C106.685 21.0011 106.069 21.441 105.321 21.749C104.529 22.0569 103.693 22.2329 102.77 22.2329C101.098 22.2329 99.7339 21.837 98.7661 21.0891C97.7542 20.3412 97.2263 19.2853 97.2263 17.8775H99.25V17.7895ZM118.871 20.9131C117.859 21.705 116.628 22.1009 115.132 22.1009C113.9 22.1009 112.8 21.837 111.876 21.2651C110.908 20.7371 110.204 19.9452 109.721 18.9774C109.193 17.9655 108.929 16.8657 108.929 15.5459C108.929 14.27 109.193 13.1702 109.721 12.1583C110.248 11.1905 110.996 10.4426 111.92 9.87066C112.844 9.29874 113.944 9.03478 115.176 9.03478C116.672 9.03478 117.903 9.43072 118.871 10.2226C119.839 11.0145 120.455 12.1143 120.719 13.5221H118.651C118.431 12.7303 118.035 12.0704 117.419 11.5864C116.76 11.1025 116.012 10.8825 115.132 10.8825C113.9 10.8825 112.932 11.3225 112.14 12.2023C111.392 13.0822 110.996 14.1821 110.996 15.5899C110.996 16.9977 111.392 18.1415 112.14 19.0214C112.888 19.9012 113.9 20.2972 115.132 20.2972C116.056 20.2972 116.848 20.0772 117.463 19.5933C118.079 19.1094 118.475 18.4495 118.695 17.6136H120.763C120.455 18.9774 119.839 20.1212 118.871 20.9131ZM128.814 9.25475V11.2345H127.802C126.57 11.2345 125.69 11.6744 125.162 12.4663C124.634 13.3022 124.37 14.27 124.37 15.5019V22.0129H122.303V9.25475H124.063L124.326 11.1905C124.678 10.6186 125.162 10.1346 125.734 9.78267C126.306 9.43072 127.098 9.25475 128.154 9.25475H128.814ZM129.518 12.2023C130.002 11.2345 130.75 10.4866 131.673 9.91465C132.553 9.38673 133.609 9.07877 134.797 9.07877C135.941 9.07877 136.997 9.34274 137.877 9.78267C138.756 10.2666 139.46 10.9705 139.988 11.8944C140.472 12.8182 140.78 13.8741 140.824 15.1059C140.824 15.3259 140.78 15.5899 140.78 15.9858H130.882V16.1618C130.926 17.3936 131.277 18.4055 132.025 19.1534C132.729 19.9012 133.697 20.2972 134.885 20.2972C135.765 20.2972 136.557 20.0772 137.217 19.6373C137.877 19.1973 138.273 18.5374 138.492 17.7016H140.56C140.296 19.0214 139.68 20.0772 138.668 20.9131C137.657 21.749 136.425 22.1449 135.017 22.1449C133.741 22.1449 132.641 21.881 131.717 21.353C130.794 20.8251 130.002 20.0332 129.518 19.0654C128.99 18.0535 128.726 16.9537 128.726 15.6338C128.77 14.314 128.99 13.1702 129.518 12.2023ZM138.712 14.314C138.624 13.2582 138.185 12.3783 137.481 11.8064C136.777 11.1905 135.897 10.9265 134.797 10.9265C133.829 10.9265 132.993 11.2345 132.245 11.8944C131.497 12.5543 131.102 13.3462 131.014 14.358L138.712 14.314ZM142.716 12.2023C143.2 11.2345 143.948 10.4866 144.872 9.91465C145.751 9.38673 146.807 9.07877 147.995 9.07877C149.139 9.07877 150.195 9.34274 151.075 9.78267C151.955 10.2666 152.658 10.9705 153.186 11.8944C153.67 12.8182 153.978 13.8741 154.022 15.1059C154.022 15.3259 153.978 15.5899 153.978 15.9858H144.124V16.1618C144.168 17.3936 144.52 18.4055 145.268 19.1534C145.971 19.9012 146.939 20.2972 148.127 20.2972C149.007 20.2972 149.799 20.0772 150.459 19.6373C151.119 19.1973 151.515 18.5374 151.735 17.7016H153.802C153.538 19.0214 152.922 20.0772 151.911 20.9131C150.899 21.749 149.711 22.1449 148.259 22.1449C146.983 22.1449 145.883 21.881 144.96 21.353C144.036 20.8251 143.244 20.0332 142.76 19.0654C142.232 18.0535 141.968 16.9537 141.968 15.6338C141.968 14.314 142.232 13.1702 142.716 12.2023ZM151.911 14.314C151.823 13.2582 151.383 12.3783 150.679 11.8064C149.975 11.1905 149.095 10.9265 147.995 10.9265C147.027 10.9265 146.191 11.2345 145.443 11.8944C144.696 12.5543 144.3 13.3462 144.212 14.358L151.911 14.314ZM165.593 10.4866C166.561 11.4544 167 12.8622 167 14.886V21.969H164.933V15.0179C164.933 13.6981 164.625 12.7303 164.053 12.0264C163.437 11.3225 162.601 10.9705 161.501 10.9705C160.313 10.9705 159.346 11.4104 158.686 12.2023C157.982 13.0382 157.674 14.1821 157.674 15.5899V21.969H155.606V9.25475H157.366L157.63 10.9705C158.598 9.73868 159.961 9.07877 161.809 9.07877C163.437 9.07877 164.625 9.5627 165.593 10.4866Z" fill="#1F1D2A"/>
<g id="signet_00000116207524363631137680000004942707305880668307_">
<path id="Vector" d="M24.0211 12.3783L25.3849 13.7421C25.9568 14.3141 26.7047 14.622 27.5406 14.622H31.1481C31.412 14.622 31.632 14.534 31.808 14.358C31.9839 14.1821 32.0719 13.9181 32.0719 13.6981V7.93495C32.0719 7.67099 31.9839 7.45102 31.808 7.27504C31.632 7.09907 31.368 7.01108 31.1481 7.01108H22.2173C21.8654 7.01108 21.5134 6.92309 21.1615 6.79111C20.8535 6.65913 20.5455 6.43916 20.2816 6.21919L15.3543 1.2039C14.9143 0.763964 14.2984 0.5 13.6825 0.5H0.968303C0.70434 0.5 0.484371 0.587989 0.308396 0.763964C0.132421 0.939939 0.0444336 1.2039 0.0444336 1.42387V7.14306C0.0444336 7.40703 0.132421 7.627 0.308396 7.80297C0.484371 7.97895 0.748334 8.06693 0.968303 8.06693H18.4338C19.2697 8.06693 20.0616 8.37489 20.6335 8.94681L24.0211 12.3783Z" fill="url(#paint0_linear_2389_444)"/>
<path id="Vector_2" d="M24.0211 12.3783L25.3849 13.7421C25.9568 14.3141 26.7047 14.622 27.5406 14.622H31.1481C31.412 14.622 31.632 14.534 31.808 14.358C31.9839 14.1821 32.0719 13.9181 32.0719 13.6981V7.93495C32.0719 7.67099 31.9839 7.45102 31.808 7.27504C31.632 7.09907 31.368 7.01108 31.1481 7.01108H22.2173C21.8654 7.01108 21.5134 6.92309 21.1615 6.79111C20.8535 6.65913 20.5455 6.43916 20.2816 6.21919L15.3543 1.2039C14.9143 0.763964 14.2984 0.5 13.6825 0.5H0.968303C0.70434 0.5 0.484371 0.587989 0.308396 0.763964C0.132421 0.939939 0.0444336 1.2039 0.0444336 1.42387V7.14306C0.0444336 7.40703 0.132421 7.627 0.308396 7.80297C0.484371 7.97895 0.748334 8.06693 0.968303 8.06693H18.4338C19.2697 8.06693 20.0616 8.37489 20.6335 8.94681L24.0211 12.3783Z" fill="url(#paint1_linear_2389_444)" fill-opacity="0.2"/>
<path id="Vector_3" d="M24.0211 12.3783L25.3849 13.7421C25.9568 14.3141 26.7047 14.622 27.5406 14.622H31.1481C31.412 14.622 31.632 14.534 31.808 14.358C31.9839 14.1821 32.0719 13.9181 32.0719 13.6981V7.93495C32.0719 7.67099 31.9839 7.45102 31.808 7.27504C31.632 7.09907 31.368 7.01108 31.1481 7.01108H22.2173C21.8654 7.01108 21.5134 6.92309 21.1615 6.79111C20.8535 6.65913 20.5455 6.43916 20.2816 6.21919L15.3543 1.2039C14.9143 0.763964 14.2984 0.5 13.6825 0.5H0.968303C0.70434 0.5 0.484371 0.587989 0.308396 0.763964C0.132421 0.939939 0.0444336 1.2039 0.0444336 1.42387V7.14306C0.0444336 7.40703 0.132421 7.627 0.308396 7.80297C0.484371 7.97895 0.748334 8.06693 0.968303 8.06693H18.4338C19.2697 8.06693 20.0616 8.37489 20.6335 8.94681L24.0211 12.3783Z" fill="url(#paint2_linear_2389_444)" fill-opacity="0.2"/>
<path id="Vector_4" d="M24.0211 12.3783L25.3849 13.7421C25.9568 14.3141 26.7047 14.622 27.5406 14.622H31.1481C31.412 14.622 31.632 14.534 31.808 14.358C31.9839 14.1821 32.0719 13.9181 32.0719 13.6981V7.93495C32.0719 7.67099 31.9839 7.45102 31.808 7.27504C31.632 7.09907 31.368 7.01108 31.1481 7.01108H22.2173C21.8654 7.01108 21.5134 6.92309 21.1615 6.79111C20.8535 6.65913 20.5455 6.43916 20.2816 6.21919L15.3543 1.2039C14.9143 0.763964 14.2984 0.5 13.6825 0.5H0.968303C0.70434 0.5 0.484371 0.587989 0.308396 0.763964C0.132421 0.939939 0.0444336 1.2039 0.0444336 1.42387V7.14306C0.0444336 7.40703 0.132421 7.627 0.308396 7.80297C0.484371 7.97895 0.748334 8.06693 0.968303 8.06693H18.4338C19.2697 8.06693 20.0616 8.37489 20.6335 8.94681L24.0211 12.3783Z" fill="url(#paint3_linear_2389_444)" fill-opacity="0.2"/>
<path id="Vector_5" d="M8.05087 13.7421L6.68706 12.3783C6.11514 11.8064 5.36724 11.4984 4.53136 11.4984H0.923869C0.659906 11.4984 0.439937 11.5864 0.263962 11.7624C0.0879869 11.9384 0 12.2023 0 12.4223V18.1415C0 18.4054 0.0879869 18.6254 0.263962 18.8014C0.439937 18.9774 0.7039 19.0653 0.923869 19.0653H9.81062C10.1626 19.0653 10.5145 19.1533 10.8665 19.2853C11.1744 19.4173 11.4824 19.6373 11.7463 19.8572L16.7176 24.8285C17.1576 25.2685 17.7735 25.5324 18.3894 25.5324H31.1036C31.3676 25.5324 31.5875 25.4444 31.7635 25.2685C31.9395 25.0925 32.0275 24.8285 32.0275 24.6086V18.9334C32.0275 18.6694 31.9395 18.4494 31.7635 18.2735C31.5875 18.0975 31.3236 18.0095 31.1036 18.0095H13.6381C12.8022 18.0095 12.0103 17.7015 11.4384 17.1296L8.05087 13.7421Z" fill="url(#paint4_linear_2389_444)"/>
<path id="Vector_6" d="M8.05087 13.7421L6.68706 12.3783C6.11514 11.8064 5.36724 11.4984 4.53136 11.4984H0.923869C0.659906 11.4984 0.439937 11.5864 0.263962 11.7624C0.0879869 11.9384 0 12.2023 0 12.4223V18.1415C0 18.4054 0.0879869 18.6254 0.263962 18.8014C0.439937 18.9774 0.7039 19.0653 0.923869 19.0653H9.81062C10.1626 19.0653 10.5145 19.1533 10.8665 19.2853C11.1744 19.4173 11.4824 19.6373 11.7463 19.8572L16.7176 24.8285C17.1576 25.2685 17.7735 25.5324 18.3894 25.5324H31.1036C31.3676 25.5324 31.5875 25.4444 31.7635 25.2685C31.9395 25.0925 32.0275 24.8285 32.0275 24.6086V18.9334C32.0275 18.6694 31.9395 18.4494 31.7635 18.2735C31.5875 18.0975 31.3236 18.0095 31.1036 18.0095H13.6381C12.8022 18.0095 12.0103 17.7015 11.4384 17.1296L8.05087 13.7421Z" fill="url(#paint5_linear_2389_444)" fill-opacity="0.2"/>
<path id="Vector_7" d="M8.05087 13.7421L6.68706 12.3783C6.11514 11.8064 5.36724 11.4984 4.53136 11.4984H0.923869C0.659906 11.4984 0.439937 11.5864 0.263962 11.7624C0.0879869 11.9384 0 12.2023 0 12.4223V18.1415C0 18.4054 0.0879869 18.6254 0.263962 18.8014C0.439937 18.9774 0.7039 19.0653 0.923869 19.0653H9.81062C10.1626 19.0653 10.5145 19.1533 10.8665 19.2853C11.1744 19.4173 11.4824 19.6373 11.7463 19.8572L16.7176 24.8285C17.1576 25.2685 17.7735 25.5324 18.3894 25.5324H31.1036C31.3676 25.5324 31.5875 25.4444 31.7635 25.2685C31.9395 25.0925 32.0275 24.8285 32.0275 24.6086V18.9334C32.0275 18.6694 31.9395 18.4494 31.7635 18.2735C31.5875 18.0975 31.3236 18.0095 31.1036 18.0095H13.6381C12.8022 18.0095 12.0103 17.7015 11.4384 17.1296L8.05087 13.7421Z" fill="url(#paint6_linear_2389_444)" fill-opacity="0.2"/>
<path id="Vector_8" d="M8.05087 13.7421L6.68706 12.3783C6.11514 11.8064 5.36724 11.4984 4.53136 11.4984H0.923869C0.659906 11.4984 0.439937 11.5864 0.263962 11.7624C0.0879869 11.9384 0 12.2023 0 12.4223V18.1415C0 18.4054 0.0879869 18.6254 0.263962 18.8014C0.439937 18.9774 0.7039 19.0653 0.923869 19.0653H9.81062C10.1626 19.0653 10.5145 19.1533 10.8665 19.2853C11.1744 19.4173 11.4824 19.6373 11.7463 19.8572L16.7176 24.8285C17.1576 25.2685 17.7735 25.5324 18.3894 25.5324H31.1036C31.3676 25.5324 31.5875 25.4444 31.7635 25.2685C31.9395 25.0925 32.0275 24.8285 32.0275 24.6086V18.9334C32.0275 18.6694 31.9395 18.4494 31.7635 18.2735C31.5875 18.0975 31.3236 18.0095 31.1036 18.0095H13.6381C12.8022 18.0095 12.0103 17.7015 11.4384 17.1296L8.05087 13.7421Z" fill="url(#paint7_linear_2389_444)" fill-opacity="0.2"/>
</g>
</g>
<defs>
<linearGradient id="paint0_linear_2389_444" x1="31.4039" y1="7.57227" x2="-1.83366" y2="7.57227" gradientUnits="userSpaceOnUse">
<stop stop-color="#FFA152"/>
<stop offset="1" stop-color="#FF5F13"/>
</linearGradient>
<linearGradient id="paint1_linear_2389_444" x1="14.2189" y1="9.20439" x2="21.4779" y2="2.82529" gradientUnits="userSpaceOnUse">
<stop stop-color="#653410" stop-opacity="0"/>
<stop offset="0.4035" stop-color="#331702" stop-opacity="0"/>
<stop offset="0.6826" stop-color="#FFD9BF"/>
<stop offset="1" stop-color="#FFA153"/>
</linearGradient>
<linearGradient id="paint2_linear_2389_444" x1="13.7244" y1="8.9908" x2="27.5824" y2="0.632023" gradientUnits="userSpaceOnUse">
<stop offset="0.2358" stop-color="#F27E32" stop-opacity="0"/>
<stop offset="0.3293" stop-color="#F27E32" stop-opacity="0.44"/>
<stop offset="0.3996" stop-color="#573620" stop-opacity="0"/>
</linearGradient>
<linearGradient id="paint3_linear_2389_444" x1="16.7615" y1="7.16106" x2="21.1609" y2="4.52143" gradientUnits="userSpaceOnUse">
<stop offset="0.473" stop-color="#FEA668" stop-opacity="0"/>
<stop offset="0.6914" stop-color="#FFCEAB" stop-opacity="0"/>
<stop offset="0.9136" stop-color="#FFCEAB"/>
</linearGradient>
<linearGradient id="paint4_linear_2389_444" x1="0.704825" y1="18.5267" x2="33.9424" y2="18.5267" gradientUnits="userSpaceOnUse">
<stop stop-color="#FFA152"/>
<stop offset="1" stop-color="#FF5F13"/>
</linearGradient>
<linearGradient id="paint5_linear_2389_444" x1="17.8672" y1="16.9137" x2="10.6082" y2="23.2928" gradientUnits="userSpaceOnUse">
<stop stop-color="#653410" stop-opacity="0"/>
<stop offset="0.4035" stop-color="#331702" stop-opacity="0"/>
<stop offset="0.6826" stop-color="#FFD9BF"/>
<stop offset="1" stop-color="#FFA153"/>
</linearGradient>
<linearGradient id="paint6_linear_2389_444" x1="18.3643" y1="17.1197" x2="4.50624" y2="25.4785" gradientUnits="userSpaceOnUse">
<stop offset="0.2358" stop-color="#F27E32" stop-opacity="0"/>
<stop offset="0.3293" stop-color="#F27E32" stop-opacity="0.44"/>
<stop offset="0.3996" stop-color="#573620" stop-opacity="0"/>
</linearGradient>
<linearGradient id="paint7_linear_2389_444" x1="15.3272" y1="18.9494" x2="10.9278" y2="21.589" gradientUnits="userSpaceOnUse">
<stop offset="0.473" stop-color="#FEA668" stop-opacity="0"/>
<stop offset="0.6914" stop-color="#FFCEAB" stop-opacity="0"/>
<stop offset="0.9136" stop-color="#FFCEAB"/>
</linearGradient>
</defs>
</svg>
